<svg width="791" height="52" viewBox="0 0 791 52" fill="none" xmlns="http://www.w3.org/2000/svg">
<path d="M751.247 50.0003L755.447 46.2803V17.5403L751.247 13.8203H766.247L771.647 30.3803L776.567 13.8203H790.247L786.047 17.5403V46.2803L790.247 50.0003H773.507L777.767 46.2803V26.3603L770.027 50.9003L761.447 26.0603V46.2803L765.707 50.0003H751.247Z" fill="white"/>
<path d="M742.699 18.1403H735.619V29.4803H739.159L742.819 24.8003V38.3003L739.159 33.6803H735.619V45.6803H743.119L748.279 33.6803V50.0003H722.419L726.679 46.2803V17.5403L722.419 13.8203H748.279V27.4403L742.699 18.1403Z" fill="white"/>
<path d="M716.58 17.5403H712.14V46.2803L716.4 50.0003H699L703.14 46.2803V17.5403H698.76L694.02 28.5803V13.8203H721.38V28.5803L716.58 17.5403Z" fill="white"/>
<path d="M682.839 27.8004C687.459 30.2004 691.779 33.0804 691.779 40.0404C691.779 46.5804 686.079 50.9004 679.539 50.9004C675.999 50.9004 673.539 50.0004 671.199 48.5004L668.139 50.9004L668.079 34.9404C672.039 43.4004 675.339 46.7004 679.179 46.7004C681.999 46.7004 684.639 44.7204 684.639 41.6004C684.639 38.2404 681.279 36.3804 677.319 34.2804C672.999 32.0004 668.559 29.3004 668.559 22.9404C668.559 16.5204 673.359 12.9204 679.839 12.9204C682.479 12.9204 684.999 13.5803 686.919 14.9004L689.739 12.8604V25.8804C687.579 19.2804 683.919 17.0604 680.319 17.0604C677.019 17.0604 675.159 18.3804 675.159 20.9004C675.159 23.9604 678.879 25.8204 682.839 27.8004Z" fill="white"/>
<path d="M641.893 50.0003L646.033 46.2803V33.8603L637.873 17.5403L633.733 13.8203H650.233L647.653 17.2403L653.053 28.5803L658.333 17.2403L655.813 13.8203H667.213L662.953 17.5403L655.093 33.6803V46.2803L659.293 50.0003H641.893Z" fill="white"/>
<path d="M622.528 20.3598C628.528 23.5998 635.368 28.0398 635.368 37.2798C635.368 46.9998 627.388 51.3198 619.228 51.3198C614.668 51.3198 611.308 50.0598 608.248 48.6798L603.748 51.3198L603.568 30.1998C608.128 42.1398 614.068 45.8598 619.048 45.8598C622.768 45.8598 625.828 43.0998 625.828 38.8998C625.828 34.5198 620.788 32.0598 615.688 29.2998C609.988 26.2398 604.108 22.6998 604.108 14.1198C604.108 5.11981 610.888 0.799805 619.228 0.799805C623.728 0.799805 626.728 2.11981 628.948 3.43981L632.848 0.859803V18.7398C630.028 9.9798 624.388 6.0198 619.288 6.0198C615.568 6.0198 613.108 8.4798 613.108 11.5398C613.108 15.6198 617.428 17.7198 622.528 20.3598ZM612.748 23.0598L615.508 22.8198L614.368 20.2998C610.228 18.3198 607.948 14.4798 609.448 8.8398C606.628 14.1798 607.468 19.6398 612.748 23.0598ZM618.988 26.8398L621.688 26.4798L620.668 23.8998L617.848 24.2598L618.988 26.8398ZM629.128 43.4598C632.368 38.7798 632.008 31.1598 626.848 27.6798L624.028 27.9198L625.228 30.4398C629.548 32.7198 631.108 37.9398 629.128 43.4598Z" fill="white"/>
<path d="M569.921 12.8604C579.341 12.8604 585.761 20.9004 585.761 31.9404C585.761 42.9204 579.341 50.9004 569.921 50.9004C560.381 50.9004 554.021 42.9204 554.021 31.9404C554.021 20.9004 560.381 12.8604 569.921 12.8604ZM569.921 46.8804C574.361 46.8804 576.821 42.5004 576.821 31.8204C576.821 21.2004 574.361 16.8204 569.921 16.8204C565.421 16.8204 562.961 21.2004 562.961 31.8204C562.961 42.5004 565.421 46.8804 569.921 46.8804ZM566.321 32.0604L569.921 26.3603L573.461 32.0604L569.921 37.5204L566.321 32.0604Z" fill="white"/>
<path d="M533.64 13.8203C543.96 13.8203 551.4 21.2003 551.4 31.9403C551.4 42.8003 543.84 50.0003 534.3 50.0003H520.74L525 46.2803V17.5403L520.74 13.8203H533.64ZM533.94 46.1603C536.46 46.1603 542.88 42.2603 542.88 31.9403C542.88 21.5603 537.12 17.6003 533.94 17.6003V46.1603Z" fill="white"/>
<path d="M487.165 50.0003L491.425 46.2803V17.5403L487.165 13.8203H497.905L509.005 29.2403V17.5403L504.805 13.8203H519.325L515.005 17.5403V50.9003L497.005 26.4203V46.2803L501.265 50.0003H487.165Z" fill="white"/>
<path d="M478.617 18.1403H471.537V29.4803H475.077L478.737 24.8003V38.3003L475.077 33.6803H471.537V45.6803H479.037L484.197 33.6803V50.0003H458.337L462.597 46.2803V17.5403L458.337 13.8203H484.197V27.4403L478.617 18.1403Z" fill="white"/>
<path d="M452.497 17.5403H448.057V46.2803L452.318 50.0003H434.918L439.057 46.2803V17.5403H434.677L429.938 28.5803V13.8203H457.298V28.5803L452.497 17.5403Z" fill="white"/>
<path d="M395.583 50.0003L399.843 46.2803V17.5403L395.583 13.8203H406.323L417.423 29.2403V17.5403L413.223 13.8203H427.743L423.423 17.5403V50.9003L405.423 26.4203V46.2803L409.683 50.0003H395.583Z" fill="white"/>
<path d="M389.699 17.5403V46.2803L393.959 50.0003H376.559L380.699 46.2803V17.5403L376.559 13.8203H393.959L389.699 17.5403Z" fill="white"/>
<path d="M358.382 2H376.142L370.802 6.02V51.32L348.182 18.98V45.86L353.522 50H335.642L340.922 45.86V6.02L335.642 2H349.202L363.722 23.12V6.02L358.382 2ZM351.062 16.76L353.522 17.84L353.402 15.08L344.942 5.66L351.062 16.76ZM357.602 23.72L357.722 21.08L355.082 20.06L355.142 22.82L357.602 23.72ZM359.402 28.7L367.802 38.24L361.742 27.08L359.282 25.94L359.402 28.7Z" fill="white"/>
<path d="M312.211 18.1403H305.131V29.4803H308.671L312.331 24.8003V38.3003L308.671 33.6803H305.131V45.6803H312.631L317.791 33.6803V50.0003H291.931L296.191 46.2803V17.5403L291.931 13.8203H317.791V27.4403L312.211 18.1403Z" fill="white"/>
<path d="M286.254 17.5403V46.2803L290.514 50.0003H273.834L278.034 46.2803V33.5603H268.314V46.2803L272.634 50.0003H255.954L260.154 46.2803V17.5403L255.954 13.8203H272.634L268.314 17.5403V29.3003H278.034V17.5403L273.834 13.8203H290.514L286.254 17.5403Z" fill="white"/>
<path d="M250.115 17.5403H245.675V46.2803L249.935 50.0003H232.535L236.675 46.2803V17.5403H232.295L227.555 28.5803V13.8203H254.915V28.5803L250.115 17.5403Z" fill="white"/>
<path d="M178.318 50.0003L182.578 46.2803V17.5403L178.318 13.8203H189.058L200.158 29.2403V17.5403L195.958 13.8203H210.478L206.158 17.5403V50.9003L188.158 26.4203V46.2803L192.418 50.0003H178.318Z" fill="white"/>
<path d="M161.639 12.8604C171.059 12.8604 177.48 20.9004 177.48 31.9404C177.48 42.9204 171.059 50.9004 161.639 50.9004C152.099 50.9004 145.74 42.9204 145.74 31.9404C145.74 20.9004 152.099 12.8604 161.639 12.8604ZM161.639 46.8804C166.079 46.8804 168.54 42.5004 168.54 31.8204C168.54 21.2004 166.079 16.8204 161.639 16.8204C157.139 16.8204 154.68 21.2004 154.68 31.8204C154.68 42.5004 157.139 46.8804 161.639 46.8804ZM158.04 32.0604L161.639 26.3603L165.18 32.0604L161.639 37.5204L158.04 32.0604Z" fill="white"/>
<path d="M105.585 50.0003L109.725 46.2803V33.8603L101.565 17.5403L97.4246 13.8203H113.925L111.345 17.2403L116.745 28.5803L122.025 17.2403L119.505 13.8203H130.905L126.645 17.5403L118.785 33.6803V46.2803L122.985 50.0003H105.585Z" fill="white"/>
<path d="M93.1481 46.2803L99.5081 30.0803V50.0003H74.5481L78.8081 46.2803V17.5403L74.5481 13.8203H92.0681L87.7481 17.5403V46.2803H93.1481Z" fill="white"/>
<path d="M40.9739 50.0003L45.2339 46.2803V17.5403L40.9739 13.8203H51.7139L62.8139 29.2403V17.5403L58.6139 13.8203H73.1339L68.8139 17.5403V50.9003L50.8139 26.4203V46.2803L55.0739 50.0003H40.9739Z" fill="white"/>
<path d="M20.16 0.799805C31.8 0.799805 39.54 11.3598 39.54 26.0598C39.54 40.6998 31.8 51.2598 20.16 51.2598C8.57997 51.2598 0.719971 40.6998 0.719971 26.0598C0.719971 11.3598 8.57997 0.799805 20.16 0.799805ZM20.46 45.9198C25.92 45.9198 28.86 40.0998 28.86 25.9398C28.86 11.8398 25.92 6.0198 20.46 6.0198C14.94 6.0198 12 11.8398 12 25.9398C12 40.0998 14.94 45.9198 20.46 45.9198ZM12.42 7.03981C8.69997 9.49981 6.53997 14.1198 5.63997 18.9798L6.59997 21.1398L8.09997 19.2798C8.69997 14.7198 9.83997 10.1598 12.42 7.03981ZM16.08 26.2398L20.46 18.6798L24.96 26.2398L20.46 33.4998L16.08 26.2398ZM6.41997 23.9598L4.85997 26.1198L6.41997 28.2198L7.97997 26.1198L6.41997 23.9598ZM5.63997 33.1998C6.11997 37.9398 8.39997 42.6198 12.12 45.1398C9.53997 42.0198 8.27997 37.8798 8.09997 32.9598L6.59997 31.0398L5.63997 33.1998Z" fill="white"/>
</svg>
