<svg width="135" height="39" viewBox="0 0 135 39" fill="none" xmlns="http://www.w3.org/2000/svg">
<path d="M127.32 30.3965C124.416 30.3965 122.196 29.4485 120.66 27.5525C119.148 25.6565 118.392 23.1245 118.392 19.9565C118.392 17.8685 118.788 16.0325 119.58 14.4485C120.372 12.8645 121.476 11.6405 122.892 10.7765C124.332 9.91247 125.964 9.48047 127.788 9.48047C130.02 9.48047 131.748 10.1045 132.972 11.3525C134.22 12.5765 134.88 14.3405 134.952 16.6445C134.952 18.1085 134.868 19.2245 134.7 19.9925H122.316C122.364 22.3685 122.916 24.2885 123.972 25.7525C125.028 27.1925 126.528 27.9125 128.472 27.9125C129.432 27.9125 130.428 27.7445 131.46 27.4085C132.516 27.0485 133.332 26.6285 133.908 26.1485L134.592 27.7325C133.896 28.4525 132.864 29.0765 131.496 29.6045C130.128 30.1325 128.736 30.3965 127.32 30.3965ZM130.992 18.0845C131.064 17.5805 131.1 17.0645 131.1 16.5365C131.076 14.9765 130.74 13.7525 130.092 12.8645C129.468 11.9525 128.472 11.4965 127.104 11.4965C125.712 11.4965 124.596 12.0005 123.756 13.0085C122.94 14.0165 122.472 15.7085 122.352 18.0845H130.992Z" fill="#FAF7DC"/>
<path d="M102.047 28.2365L104.747 28.0205V12.7925L102.155 12.1445V10.2005L107.123 9.55247H107.195L107.987 10.2005V10.8485L107.879 13.6565H107.987C108.227 13.2485 108.659 12.7205 109.283 12.0725C109.907 11.4245 110.711 10.8365 111.695 10.3085C112.679 9.75647 113.747 9.48047 114.899 9.48047C115.379 9.48047 115.775 9.54047 116.087 9.66047V13.6925C115.919 13.5725 115.643 13.4645 115.259 13.3685C114.899 13.2485 114.491 13.1885 114.035 13.1885C112.043 13.1885 110.195 13.8005 108.491 15.0245V27.9845L113.063 28.2725V30.0005H102.047V28.2365Z" fill="#FAF7DC"/>
<path d="M80.0732 19.9565C80.0732 17.7965 80.5172 15.9245 81.4052 14.3405C82.2932 12.7565 83.4572 11.5565 84.8972 10.7405C86.3612 9.90047 87.9212 9.48047 89.5772 9.48047C92.6012 9.48047 94.8692 10.4405 96.3812 12.3605C97.9172 14.2805 98.6852 16.8005 98.6852 19.9205C98.6852 22.1045 98.2412 23.9885 97.3532 25.5725C96.4652 27.1565 95.2892 28.3565 93.8252 29.1725C92.3852 29.9885 90.8372 30.3965 89.1812 30.3965C86.1572 30.3965 83.8772 29.4365 82.3412 27.5165C80.8292 25.5965 80.0732 23.0765 80.0732 19.9565ZM89.3972 28.3445C91.0532 28.3445 92.3252 27.6605 93.2132 26.2925C94.1012 24.9245 94.5452 22.8965 94.5452 20.2085C94.5452 17.5445 94.1372 15.4325 93.3212 13.8725C92.5052 12.3125 91.1972 11.5325 89.3972 11.5325C87.7412 11.5325 86.4572 12.2165 85.5452 13.5845C84.6572 14.9525 84.2132 16.9805 84.2132 19.6685C84.2132 22.3325 84.6332 24.4445 85.4732 26.0045C86.3132 27.5645 87.6212 28.3445 89.3972 28.3445Z" fill="#FAF7DC"/>
<path d="M70.7129 3.14363L67.7969 2.74763V1.19963L73.5929 0.515625H73.6649L74.4569 1.05563V27.9476L77.5169 28.2356V29.9996H67.7969V28.2356L70.7129 27.9116V3.14363Z" fill="#FAF7DC"/>
<path d="M64.9553 19.3085C64.9553 21.3485 64.5353 23.2205 63.6953 24.9245C62.8553 26.6045 61.6553 27.9365 60.0953 28.9205C58.5353 29.9045 56.7113 30.3965 54.6233 30.3965C54.0473 30.3965 53.4233 30.3485 52.7513 30.2525C52.0793 30.1565 51.5393 30.0365 51.1313 29.8925L51.2393 32.9165V36.5525L54.9833 36.9485V38.7125H44.9393V36.9485L47.5313 36.5525V12.7925L44.9033 12.1445V10.2005L50.0153 9.55247H50.0873L50.8433 10.2005V12.3245C51.5633 11.5325 52.4513 10.8605 53.5073 10.3085C54.5873 9.75647 55.7873 9.48047 57.1073 9.48047C58.5233 9.48047 59.8193 9.82847 60.9953 10.5245C62.1953 11.2205 63.1553 12.3005 63.8753 13.7645C64.5953 15.2285 64.9553 17.0765 64.9553 19.3085ZM55.6313 12.0005C54.7193 12.0005 53.8673 12.1925 53.0753 12.5765C52.2833 12.9605 51.6713 13.3805 51.2393 13.8365V27.4085C51.4073 27.6965 51.8273 27.9605 52.4993 28.2005C53.1953 28.4165 53.9513 28.5245 54.7673 28.5245C56.6153 28.5245 58.1033 27.7925 59.2313 26.3285C60.3833 24.8645 60.9593 22.6565 60.9593 19.7045C60.9593 17.1125 60.4553 15.1805 59.4473 13.9085C58.4633 12.6365 57.1913 12.0005 55.6313 12.0005Z" fill="#FAF7DC"/>
<path d="M31.233 20.0275L25.149 12.1435L23.133 11.7115V10.0195H32.277V11.7115L29.757 12.1435L33.033 16.7875L34.041 18.3355L35.013 16.7875L38.433 12.1435L35.805 11.7115V10.0195H43.401V11.7115L41.241 12.1435L35.265 19.5955L41.637 27.9475L43.725 28.2715V29.9995H34.473V28.2715L36.849 27.9115L33.573 23.0515L32.493 21.4315L31.521 23.0155L28.065 27.9115L31.053 28.2715V29.9995H22.665V28.2715L25.077 27.9115L31.233 20.0275Z" fill="#FAF7DC"/>
<path d="M3.64376 5.48395L0.691762 5.05195V3.25195H19.0158L19.5198 8.83195H17.4678L16.4238 5.33995L7.49576 5.12395V15.276L13.5078 15.168L14.0118 12.18H15.9918V20.46H14.0118L13.5078 17.364L7.49576 17.256V27.984L17.6478 27.624L19.5558 23.088L21.6798 23.736L20.6358 30H0.655762V28.236L3.64376 27.876V5.48395Z" fill="#FAF7DC"/>
</svg>
