<svg width="112" height="29" viewBox="0 0 112 29" fill="none" xmlns="http://www.w3.org/2000/svg">
<path d="M103.906 28.3965C101.002 28.3965 98.7815 27.4485 97.2455 25.5525C95.7335 23.6565 94.9775 21.1245 94.9775 17.9565C94.9775 15.8685 95.3735 14.0325 96.1655 12.4485C96.9575 10.8645 98.0615 9.64047 99.4775 8.77647C100.918 7.91247 102.55 7.48047 104.374 7.48047C106.606 7.48047 108.334 8.10447 109.558 9.35247C110.806 10.5765 111.466 12.3405 111.538 14.6445C111.538 16.1085 111.454 17.2245 111.286 17.9925H98.9015C98.9495 20.3685 99.5015 22.2885 100.558 23.7525C101.614 25.1925 103.114 25.9125 105.058 25.9125C106.018 25.9125 107.014 25.7445 108.046 25.4085C109.102 25.0485 109.918 24.6285 110.494 24.1485L111.178 25.7325C110.482 26.4525 109.45 27.0765 108.082 27.6045C106.714 28.1325 105.322 28.3965 103.906 28.3965ZM107.578 16.0845C107.65 15.5805 107.686 15.0645 107.686 14.5365C107.662 12.9765 107.326 11.7525 106.678 10.8645C106.054 9.95247 105.058 9.49647 103.69 9.49647C102.298 9.49647 101.182 10.0005 100.342 11.0085C99.5255 12.0165 99.0575 13.7085 98.9375 16.0845H107.578Z" fill="#FAF7DC"/>
<path d="M86.5457 28.3599C85.1777 28.3599 84.1577 28.0479 83.4857 27.4239C82.8137 26.7999 82.4777 25.7319 82.4777 24.2199V10.3959H79.8857V8.77594C80.0057 8.75194 80.3417 8.66794 80.8937 8.52394C81.4457 8.37994 81.8177 8.24794 82.0097 8.12794C82.3937 7.91194 82.6937 7.47994 82.9097 6.83194C83.1017 6.37594 83.3297 5.64394 83.5937 4.63594C83.8577 3.62794 84.0137 3.02794 84.0617 2.83594H86.1857L86.2577 8.01994H92.2697V10.3959H86.2577V21.4479C86.2577 22.8159 86.2937 23.7759 86.3657 24.3279C86.4617 24.8799 86.6417 25.2399 86.9057 25.4079C87.1937 25.5759 87.6737 25.6599 88.3457 25.6599C88.9937 25.6599 89.7017 25.5759 90.4697 25.4079C91.2617 25.2399 91.8737 25.0599 92.3057 24.8679L92.8457 26.4879C92.2697 26.9199 91.3337 27.3399 90.0377 27.7479C88.7657 28.1559 87.6017 28.3599 86.5457 28.3599Z" fill="#FAF7DC"/>
<path d="M60.21 22.5999C60.21 20.3439 61.338 18.6879 63.594 17.6319C65.85 16.5519 68.706 15.9759 72.162 15.9039V14.8959C72.162 13.7679 72.042 12.8799 71.802 12.2319C71.562 11.5839 71.142 11.1159 70.542 10.8279C69.966 10.5159 69.138 10.3599 68.058 10.3599C66.834 10.3599 65.73 10.5399 64.746 10.8999C63.786 11.2359 62.826 11.6559 61.866 12.1599L60.966 10.2879C61.278 10.0239 61.854 9.67589 62.694 9.24389C63.534 8.81189 64.506 8.42789 65.61 8.09189C66.714 7.75589 67.818 7.58789 68.922 7.58789C70.626 7.58789 71.97 7.82789 72.954 8.30789C73.962 8.76389 74.682 9.50789 75.114 10.5399C75.546 11.5719 75.762 12.9519 75.762 14.6799V26.2359H77.886V27.8199C77.406 27.9399 76.794 28.0599 76.05 28.1799C75.33 28.2999 74.694 28.3599 74.142 28.3599C73.47 28.3599 73.014 28.2519 72.774 28.0359C72.534 27.8439 72.414 27.3999 72.414 26.7039V25.5159C71.694 26.2359 70.806 26.8959 69.75 27.4959C68.718 28.0959 67.542 28.3959 66.222 28.3959C64.494 28.3959 63.054 27.9039 61.902 26.9199C60.774 25.9119 60.21 24.4719 60.21 22.5999ZM67.77 25.9479C68.394 25.9479 69.114 25.7559 69.93 25.3719C70.746 24.9879 71.49 24.5319 72.162 24.0039V17.8119C69.546 17.8119 67.566 18.2199 66.222 19.0359C64.902 19.8279 64.242 20.8719 64.242 22.1679C64.242 23.4639 64.554 24.4239 65.178 25.0479C65.826 25.6479 66.69 25.9479 67.77 25.9479Z" fill="#FAF7DC"/>
<path d="M49.4837 28.3965C46.5797 28.3965 44.3597 27.4485 42.8237 25.5525C41.3117 23.6565 40.5557 21.1245 40.5557 17.9565C40.5557 15.8685 40.9517 14.0325 41.7437 12.4485C42.5357 10.8645 43.6397 9.64047 45.0557 8.77647C46.4957 7.91247 48.1277 7.48047 49.9517 7.48047C52.1837 7.48047 53.9117 8.10447 55.1357 9.35247C56.3837 10.5765 57.0437 12.3405 57.1157 14.6445C57.1157 16.1085 57.0317 17.2245 56.8637 17.9925H44.4797C44.5277 20.3685 45.0797 22.2885 46.1357 23.7525C47.1917 25.1925 48.6917 25.9125 50.6357 25.9125C51.5957 25.9125 52.5917 25.7445 53.6237 25.4085C54.6797 25.0485 55.4957 24.6285 56.0717 24.1485L56.7557 25.7325C56.0597 26.4525 55.0277 27.0765 53.6597 27.6045C52.2917 28.1325 50.8997 28.3965 49.4837 28.3965ZM53.1557 16.0845C53.2277 15.5805 53.2637 15.0645 53.2637 14.5365C53.2397 12.9765 52.9037 11.7525 52.2557 10.8645C51.6317 9.95247 50.6357 9.49647 49.2677 9.49647C47.8757 9.49647 46.7597 10.0005 45.9197 11.0085C45.1037 12.0165 44.6357 13.7085 44.5157 16.0845H53.1557Z" fill="#FAF7DC"/>
<path d="M24.2114 26.2365L26.9114 26.0205V10.7925L24.3194 10.1445V8.20047L29.2874 7.55247H29.3594L30.1514 8.20047V8.84847L30.0434 11.6565H30.1514C30.3914 11.2485 30.8234 10.7205 31.4474 10.0725C32.0714 9.42447 32.8754 8.83647 33.8594 8.30847C34.8434 7.75647 35.9114 7.48047 37.0634 7.48047C37.5434 7.48047 37.9394 7.54047 38.2514 7.66047V11.6925C38.0834 11.5725 37.8074 11.4645 37.4234 11.3685C37.0634 11.2485 36.6554 11.1885 36.1994 11.1885C34.2074 11.1885 32.3594 11.8005 30.6554 13.0245V25.9845L35.2274 26.2725V28.0005H24.2114V26.2365Z" fill="#FAF7DC"/>
<path d="M12.608 28.3959C9.96799 28.3959 7.71199 27.8319 5.83999 26.7039C3.99199 25.5519 2.58799 23.9439 1.62799 21.8799C0.667988 19.8159 0.187988 17.3919 0.187988 14.6079C0.187988 11.9199 0.751988 9.54387 1.87999 7.47987C3.00799 5.41587 4.55599 3.81987 6.52399 2.69187C8.49199 1.53987 10.7 0.963867 13.148 0.963867C14.996 0.963867 17.216 1.25187 19.808 1.82787L20.996 2.04387L20.636 8.52387H18.224L17.324 3.95187C16.988 3.66387 16.4 3.42387 15.56 3.23187C14.744 3.01587 13.736 2.90787 12.536 2.90787C11 2.90787 9.63199 3.35187 8.43199 4.23987C7.23199 5.10387 6.28399 6.38787 5.58799 8.09187C4.91599 9.79587 4.57999 11.8359 4.57999 14.2119C4.57999 16.4679 4.87999 18.5199 5.47999 20.3679C6.07999 22.2159 6.99199 23.6919 8.21599 24.7959C9.43999 25.8759 10.952 26.4159 12.752 26.4159C14.024 26.4159 14.996 26.3079 15.668 26.0919C16.364 25.8759 16.952 25.5639 17.432 25.1559L18.944 21.6279L21.212 21.9159L20.348 27.0279C19.844 27.0519 19.1 27.2199 18.116 27.5319C17.252 27.7959 16.412 27.9999 15.596 28.1439C14.804 28.3119 13.808 28.3959 12.608 28.3959Z" fill="#FAF7DC"/>
</svg>
