<svg width="781" height="39" viewBox="0 0 781 39" fill="none" xmlns="http://www.w3.org/2000/svg">
<path d="M772.788 30.3965C769.884 30.3965 767.664 29.4485 766.128 27.5525C764.616 25.6565 763.86 23.1245 763.86 19.9565C763.86 17.8685 764.256 16.0325 765.048 14.4485C765.84 12.8645 766.944 11.6405 768.36 10.7765C769.8 9.91247 771.432 9.48047 773.256 9.48047C775.488 9.48047 777.216 10.1045 778.44 11.3525C779.688 12.5765 780.348 14.3405 780.42 16.6445C780.42 18.1085 780.336 19.2245 780.168 19.9925H767.784C767.832 22.3685 768.384 24.2885 769.44 25.7525C770.496 27.1925 771.996 27.9125 773.94 27.9125C774.9 27.9125 775.896 27.7445 776.928 27.4085C777.984 27.0485 778.8 26.6285 779.376 26.1485L780.06 27.7325C779.364 28.4525 778.332 29.0765 776.964 29.6045C775.596 30.1325 774.204 30.3965 772.788 30.3965ZM776.46 18.0845C776.532 17.5805 776.568 17.0645 776.568 16.5365C776.544 14.9765 776.208 13.7525 775.56 12.8645C774.936 11.9525 773.94 11.4965 772.572 11.4965C771.18 11.4965 770.064 12.0005 769.224 13.0085C768.408 14.0165 767.94 15.7085 767.82 18.0845H776.46Z" fill="#FAF7DC"/>
<path d="M754.572 3.14363L751.656 2.74763V1.19963L757.452 0.515625H757.524L758.316 1.05563V27.9476L761.376 28.2356V29.9996H751.656V28.2356L754.572 27.9116V3.14363Z" fill="#FAF7DC"/>
<path d="M745.578 30.3239C744.906 30.3239 744.402 30.1919 744.066 29.9279C743.754 29.6639 743.598 29.2319 743.598 28.6319V27.4079C742.806 28.1999 741.81 28.8959 740.61 29.4959C739.434 30.0959 738.246 30.3959 737.046 30.3959C734.814 30.3959 733.23 29.7959 732.294 28.5959C731.358 27.3959 730.89 25.4159 730.89 22.6559V12.2159L728.874 11.6399V10.0559L733.914 9.58789H733.95L734.634 10.0199V22.3679C734.634 23.7599 734.73 24.8519 734.922 25.6439C735.138 26.4119 735.498 26.9879 736.002 27.3719C736.53 27.7319 737.286 27.9119 738.27 27.9119C739.23 27.9119 740.13 27.7079 740.97 27.2999C741.81 26.8919 742.542 26.4119 743.166 25.8599V12.2159L740.574 11.6399V10.0559L746.046 9.58789H746.082L746.91 10.0199V28.1639H749.07L749.034 29.7839C748.362 29.9519 747.774 30.0839 747.27 30.1799C746.79 30.2759 746.226 30.3239 745.578 30.3239Z" fill="#FAF7DC"/>
<path d="M712.782 28.2365L715.482 28.0205V12.7925L712.89 12.1445V10.2005L717.858 9.55247H717.93L718.722 10.2005V10.8485L718.614 13.6565H718.722C718.962 13.2485 719.394 12.7205 720.018 12.0725C720.642 11.4245 721.446 10.8365 722.43 10.3085C723.414 9.75647 724.482 9.48047 725.634 9.48047C726.114 9.48047 726.51 9.54047 726.822 9.66047V13.6925C726.654 13.5725 726.378 13.4645 725.994 13.3685C725.634 13.2485 725.226 13.1885 724.77 13.1885C722.778 13.1885 720.93 13.8005 719.226 15.0245V27.9845L723.798 28.2725V30.0005H712.782V28.2365Z" fill="#FAF7DC"/>
<path d="M695.024 38.9635C694.616 38.9635 694.208 38.9395 693.8 38.8915C693.416 38.8435 693.14 38.7715 692.972 38.6755V35.5435C693.116 35.6395 693.392 35.7115 693.8 35.7595C694.232 35.8075 694.64 35.8315 695.024 35.8315C696.176 35.8315 697.184 35.4235 698.048 34.6075C698.936 33.8155 699.788 32.2795 700.604 29.9995H698.876L692.036 12.1795L690.38 11.7115V10.0195H699.056V11.7115L696.284 12.1435L699.812 22.7635L701.468 28.0195L703.016 22.7275L706.22 12.1435L703.808 11.7115V10.0195H711.044V11.7115L709.244 12.1435C705.716 22.9435 703.64 29.0755 703.016 30.5395C702.2 32.6035 701.456 34.2115 700.784 35.3635C700.112 36.5395 699.32 37.4275 698.408 38.0275C697.496 38.6515 696.368 38.9635 695.024 38.9635Z" fill="#FAF7DC"/>
<path d="M665.392 5.48395L662.548 5.05195V3.25195H672.34V5.05195L669.244 5.48395V15.168H681.916V5.48395L679 5.05195V3.25195H688.648V5.05195L685.804 5.48395V27.876L688.648 28.236V30H678.964V28.236L681.916 27.876V17.4H669.244V27.876L672.376 28.236V30H662.476V28.236L665.392 27.876V5.48395Z" fill="#FAF7DC"/>
<path d="M642.219 12.3964H638.835V10.7404L642.219 10.0564V8.36438C642.219 6.87638 642.603 5.50838 643.371 4.26038C644.163 3.01238 645.183 2.02838 646.431 1.30838C647.703 0.564383 649.047 0.192383 650.463 0.192383C651.279 0.192383 651.987 0.300383 652.587 0.516383V4.11638C652.371 3.92438 651.939 3.74438 651.291 3.57638C650.667 3.38438 649.971 3.28838 649.203 3.28838C648.075 3.28838 647.247 3.58838 646.719 4.18839C646.215 4.76438 645.963 5.77239 645.963 7.21239V10.0564H650.931V12.3964H645.963V27.9484L649.959 28.2364V30.0004H639.159V28.2364L642.219 27.9124V12.3964Z" fill="#FAF7DC"/>
<path d="M617.437 19.9565C617.437 17.7965 617.881 15.9245 618.769 14.3405C619.657 12.7565 620.82 11.5565 622.26 10.7405C623.724 9.90047 625.285 9.48047 626.941 9.48047C629.965 9.48047 632.233 10.4405 633.745 12.3605C635.281 14.2805 636.049 16.8005 636.049 19.9205C636.049 22.1045 635.605 23.9885 634.717 25.5725C633.829 27.1565 632.653 28.3565 631.189 29.1725C629.749 29.9885 628.201 30.3965 626.545 30.3965C623.521 30.3965 621.241 29.4365 619.705 27.5165C618.193 25.5965 617.437 23.0765 617.437 19.9565ZM626.761 28.3445C628.417 28.3445 629.689 27.6605 630.577 26.2925C631.465 24.9245 631.909 22.8965 631.909 20.2085C631.909 17.5445 631.501 15.4325 630.685 13.8725C629.869 12.3125 628.561 11.5325 626.761 11.5325C625.105 11.5325 623.821 12.2165 622.909 13.5845C622.021 14.9525 621.577 16.9805 621.577 19.6685C621.577 22.3325 621.997 24.4445 622.837 26.0045C623.677 27.5645 624.985 28.3445 626.761 28.3445Z" fill="#FAF7DC"/>
<path d="M603.244 19.7764H588.7V17.1484H603.244V19.7764Z" fill="#FAF7DC"/>
<path d="M562.917 27.1199C563.157 27.4799 563.661 27.8039 564.429 28.0919C565.221 28.3799 566.049 28.5239 566.913 28.5239C568.281 28.5239 569.289 28.2599 569.937 27.7319C570.585 27.2039 570.909 26.4719 570.909 25.5359C570.909 24.8879 570.705 24.3239 570.297 23.8439C569.889 23.3639 569.313 22.9439 568.569 22.5839C567.849 22.1999 566.805 21.7439 565.437 21.2159C563.589 20.5199 562.233 19.6919 561.369 18.7319C560.529 17.7479 560.109 16.4639 560.109 14.8799C560.109 13.8239 560.421 12.8999 561.045 12.1079C561.693 11.3159 562.569 10.7039 563.673 10.2719C564.801 9.81589 566.049 9.58789 567.417 9.58789C568.521 9.58789 569.481 9.67189 570.297 9.83989C571.137 10.0079 571.809 10.1759 572.313 10.3439C572.817 10.5119 573.153 10.6199 573.321 10.6679V15.1319H571.125L570.405 12.4679C570.261 12.1799 569.877 11.9399 569.253 11.7479C568.629 11.5319 567.933 11.4239 567.165 11.4239C566.085 11.4239 565.209 11.6639 564.537 12.1439C563.889 12.6239 563.565 13.2719 563.565 14.0879C563.565 14.8079 563.733 15.4079 564.069 15.8879C564.429 16.3439 564.873 16.7159 565.401 17.0039C565.929 17.2919 566.649 17.6279 567.561 18.0119L568.281 18.2999C569.625 18.8279 570.717 19.3319 571.557 19.8119C572.397 20.2919 573.093 20.9279 573.645 21.7199C574.221 22.4879 574.509 23.4359 574.509 24.5639C574.509 26.3399 573.813 27.7559 572.421 28.8119C571.053 29.8679 569.169 30.3959 566.769 30.3959C565.593 30.3959 564.357 30.2399 563.061 29.9279C561.789 29.5919 560.745 29.2559 559.929 28.9199V24.3119H562.269L562.917 27.1199Z" fill="#FAF7DC"/>
<path d="M548.843 30.3965C545.939 30.3965 543.719 29.4485 542.183 27.5525C540.671 25.6565 539.915 23.1245 539.915 19.9565C539.915 17.8685 540.311 16.0325 541.103 14.4485C541.895 12.8645 542.999 11.6405 544.415 10.7765C545.855 9.91247 547.487 9.48047 549.311 9.48047C551.543 9.48047 553.271 10.1045 554.495 11.3525C555.743 12.5765 556.403 14.3405 556.475 16.6445C556.475 18.1085 556.391 19.2245 556.223 19.9925H543.839C543.887 22.3685 544.439 24.2885 545.495 25.7525C546.551 27.1925 548.051 27.9125 549.995 27.9125C550.955 27.9125 551.951 27.7445 552.983 27.4085C554.039 27.0485 554.855 26.6285 555.431 26.1485L556.115 27.7325C555.419 28.4525 554.387 29.0765 553.019 29.6045C551.651 30.1325 550.259 30.3965 548.843 30.3965ZM552.515 18.0845C552.587 17.5805 552.623 17.0645 552.623 16.5365C552.599 14.9765 552.263 13.7525 551.615 12.8645C550.991 11.9525 549.995 11.4965 548.627 11.4965C547.235 11.4965 546.119 12.0005 545.279 13.0085C544.463 14.0165 543.995 15.7085 543.875 18.0845H552.515Z" fill="#FAF7DC"/>
<path d="M532.247 6.42015C531.479 6.42015 530.903 6.20415 530.519 5.77215C530.135 5.34015 529.943 4.78815 529.943 4.11615C529.943 3.34815 530.171 2.71215 530.627 2.20815C531.107 1.70415 531.755 1.45215 532.571 1.45215C533.387 1.45215 533.987 1.66815 534.371 2.10015C534.755 2.53215 534.947 3.08415 534.947 3.75615C534.947 4.57215 534.707 5.22015 534.227 5.70015C533.771 6.18015 533.123 6.42015 532.283 6.42015H532.247ZM530.807 12.7921L528.071 12.1441V10.2361L533.651 9.55215H533.723L534.551 10.2001V27.9481L537.431 28.2361V30.0001H527.891V28.2361L530.807 27.9121V12.7921Z" fill="#FAF7DC"/>
<path d="M508.321 3.14363L505.513 2.74763V1.19963L511.237 0.515625H511.273L512.065 1.05563V18.6596L511.993 20.7836L520.309 12.1796L517.609 11.6756V10.0196H526.321V11.6756L523.477 12.1796L518.185 17.3276L525.025 27.9476L527.257 28.2356V29.9996H518.509V28.2356L520.777 27.9116L515.701 19.5596L511.993 23.2316L512.065 25.0676V27.9116L514.621 28.2356V29.9996H506.053V28.2356L508.321 27.9116V3.14363Z" fill="#FAF7DC"/>
<path d="M491.585 27.1199C491.825 27.4799 492.329 27.8039 493.097 28.0919C493.889 28.3799 494.717 28.5239 495.581 28.5239C496.949 28.5239 497.957 28.2599 498.605 27.7319C499.253 27.2039 499.577 26.4719 499.577 25.5359C499.577 24.8879 499.373 24.3239 498.965 23.8439C498.557 23.3639 497.981 22.9439 497.237 22.5839C496.517 22.1999 495.473 21.7439 494.105 21.2159C492.257 20.5199 490.901 19.6919 490.037 18.7319C489.197 17.7479 488.777 16.4639 488.777 14.8799C488.777 13.8239 489.089 12.8999 489.713 12.1079C490.361 11.3159 491.237 10.7039 492.341 10.2719C493.469 9.81589 494.717 9.58789 496.085 9.58789C497.189 9.58789 498.149 9.67189 498.965 9.83989C499.805 10.0079 500.477 10.1759 500.981 10.3439C501.485 10.5119 501.821 10.6199 501.989 10.6679V15.1319H499.793L499.073 12.4679C498.929 12.1799 498.545 11.9399 497.921 11.7479C497.297 11.5319 496.601 11.4239 495.833 11.4239C494.753 11.4239 493.877 11.6639 493.205 12.1439C492.557 12.6239 492.233 13.2719 492.233 14.0879C492.233 14.8079 492.401 15.4079 492.737 15.8879C493.097 16.3439 493.541 16.7159 494.069 17.0039C494.597 17.2919 495.317 17.6279 496.229 18.0119L496.949 18.2999C498.293 18.8279 499.385 19.3319 500.225 19.8119C501.065 20.2919 501.761 20.9279 502.313 21.7199C502.889 22.4879 503.177 23.4359 503.177 24.5639C503.177 26.3399 502.481 27.7559 501.089 28.8119C499.721 29.8679 497.837 30.3959 495.437 30.3959C494.261 30.3959 493.025 30.2399 491.729 29.9279C490.457 29.5919 489.413 29.2559 488.597 28.9199V24.3119H490.937L491.585 27.1199Z" fill="#FAF7DC"/>
<path d="M465.111 30.3956C463.671 30.3956 462.351 30.0356 461.151 29.3156C459.951 28.5956 458.991 27.4916 458.271 26.0036C457.575 24.5156 457.227 22.6796 457.227 20.4956C457.227 18.4556 457.647 16.5956 458.487 14.9156C459.327 13.2356 460.527 11.9156 462.087 10.9556C463.671 9.97163 465.531 9.47962 467.667 9.47962C468.891 9.47962 470.007 9.61163 471.015 9.87563V3.14363L467.343 2.71163V1.16362L473.823 0.515625H473.931L474.723 1.09163V28.1636H476.811V29.8196C476.043 29.9876 475.371 30.1196 474.795 30.2156C474.243 30.3116 473.655 30.3596 473.031 30.3596C472.407 30.3596 471.963 30.2516 471.699 30.0356C471.435 29.8196 471.303 29.3636 471.303 28.6676V27.5156C470.631 28.3316 469.743 29.0156 468.639 29.5676C467.559 30.1196 466.383 30.3956 465.111 30.3956ZM466.551 27.8396C467.487 27.8396 468.363 27.6356 469.179 27.2276C469.995 26.7956 470.607 26.3036 471.015 25.7516V12.5756C470.823 12.2876 470.367 12.0356 469.647 11.8196C468.951 11.5796 468.207 11.4596 467.415 11.4596C465.543 11.4596 464.043 12.1796 462.915 13.6196C461.811 15.0356 461.259 17.2316 461.259 20.2076C461.259 22.7996 461.751 24.7196 462.735 25.9676C463.719 27.2156 464.991 27.8396 466.551 27.8396Z" fill="#FAF7DC"/>
<path d="M435.589 12.7918L432.997 12.1438V10.1998L438.145 9.55176H438.253L439.009 10.1998V11.7118L438.973 12.5758C439.837 11.8078 440.977 11.1118 442.393 10.4878C443.809 9.86376 445.165 9.55176 446.461 9.55176C447.973 9.55176 449.137 9.83976 449.953 10.4158C450.793 10.9918 451.381 11.8798 451.717 13.0798C452.053 14.2558 452.221 15.8518 452.221 17.8678V27.9478L454.741 28.1998V29.9998H446.209V28.2358L448.441 27.9478V17.8318C448.441 16.4158 448.345 15.3118 448.153 14.5198C447.961 13.7038 447.601 13.1038 447.073 12.7198C446.545 12.3118 445.777 12.1078 444.769 12.1078C443.905 12.1078 442.981 12.3238 441.997 12.7558C441.013 13.1878 440.137 13.6918 439.369 14.2678V27.9118L441.817 28.2358V29.9998H433.321V28.2358L435.589 27.9118V12.7918Z" fill="#FAF7DC"/>
<path d="M413.249 24.5999C413.249 22.3439 414.377 20.6879 416.633 19.6319C418.889 18.5519 421.745 17.9759 425.201 17.9039V16.8959C425.201 15.7679 425.081 14.8799 424.841 14.2319C424.601 13.5839 424.181 13.1159 423.581 12.8279C423.005 12.5159 422.177 12.3599 421.097 12.3599C419.873 12.3599 418.769 12.5399 417.785 12.8999C416.825 13.2359 415.865 13.6559 414.905 14.1599L414.005 12.2879C414.317 12.0239 414.893 11.6759 415.733 11.2439C416.573 10.8119 417.545 10.4279 418.649 10.0919C419.753 9.75589 420.857 9.58789 421.961 9.58789C423.665 9.58789 425.009 9.82789 425.993 10.3079C427.001 10.7639 427.721 11.5079 428.153 12.5399C428.585 13.5719 428.801 14.9519 428.801 16.6799V28.2359H430.925V29.8199C430.445 29.9399 429.833 30.0599 429.089 30.1799C428.369 30.2999 427.733 30.3599 427.181 30.3599C426.509 30.3599 426.053 30.2519 425.813 30.0359C425.573 29.8439 425.453 29.3999 425.453 28.7039V27.5159C424.733 28.2359 423.845 28.8959 422.789 29.4959C421.757 30.0959 420.581 30.3959 419.261 30.3959C417.533 30.3959 416.093 29.9039 414.941 28.9199C413.813 27.9119 413.249 26.4719 413.249 24.5999ZM420.809 27.9479C421.433 27.9479 422.153 27.7559 422.969 27.3719C423.785 26.9879 424.529 26.5319 425.201 26.0039V19.8119C422.585 19.8119 420.605 20.2199 419.261 21.0359C417.941 21.8279 417.281 22.8719 417.281 24.1679C417.281 25.4639 417.593 26.4239 418.217 27.0479C418.865 27.6479 419.729 27.9479 420.809 27.9479Z" fill="#FAF7DC"/>
<path d="M399.057 19.7764H384.513V17.1484H399.057V19.7764Z" fill="#FAF7DC"/>
<path d="M358.974 30.3956C357.534 30.3956 356.214 30.0356 355.014 29.3156C353.814 28.5956 352.854 27.4916 352.134 26.0036C351.438 24.5156 351.09 22.6796 351.09 20.4956C351.09 18.4556 351.51 16.5956 352.35 14.9156C353.19 13.2356 354.39 11.9156 355.95 10.9556C357.534 9.97163 359.394 9.47962 361.53 9.47962C362.754 9.47962 363.87 9.61163 364.878 9.87563V3.14363L361.206 2.71163V1.16362L367.686 0.515625H367.794L368.586 1.09163V28.1636H370.674V29.8196C369.906 29.9876 369.234 30.1196 368.658 30.2156C368.106 30.3116 367.518 30.3596 366.894 30.3596C366.27 30.3596 365.826 30.2516 365.562 30.0356C365.298 29.8196 365.166 29.3636 365.166 28.6676V27.5156C364.494 28.3316 363.606 29.0156 362.502 29.5676C361.422 30.1196 360.246 30.3956 358.974 30.3956ZM360.414 27.8396C361.35 27.8396 362.226 27.6356 363.042 27.2276C363.858 26.7956 364.47 26.3036 364.878 25.7516V12.5756C364.686 12.2876 364.23 12.0356 363.51 11.8196C362.814 11.5796 362.07 11.4596 361.278 11.4596C359.406 11.4596 357.906 12.1796 356.778 13.6196C355.674 15.0356 355.122 17.2316 355.122 20.2076C355.122 22.7996 355.614 24.7196 356.598 25.9676C357.582 27.2156 358.854 27.8396 360.414 27.8396Z" fill="#FAF7DC"/>
<path d="M329.452 12.7918L326.86 12.1438V10.1998L332.008 9.55176H332.116L332.872 10.1998V11.7118L332.836 12.5758C333.7 11.8078 334.84 11.1118 336.256 10.4878C337.672 9.86376 339.028 9.55176 340.324 9.55176C341.836 9.55176 343 9.83976 343.816 10.4158C344.656 10.9918 345.244 11.8798 345.58 13.0798C345.916 14.2558 346.084 15.8518 346.084 17.8678V27.9478L348.604 28.1998V29.9998H340.072V28.2358L342.304 27.9478V17.8318C342.304 16.4158 342.208 15.3118 342.016 14.5198C341.824 13.7038 341.464 13.1038 340.936 12.7198C340.408 12.3118 339.64 12.1078 338.632 12.1078C337.768 12.1078 336.844 12.3238 335.86 12.7558C334.876 13.1878 334 13.6918 333.232 14.2678V27.9118L335.68 28.2358V29.9998H327.184V28.2358L329.452 27.9118V12.7918Z" fill="#FAF7DC"/>
<path d="M307.112 24.5999C307.112 22.3439 308.24 20.6879 310.496 19.6319C312.752 18.5519 315.608 17.9759 319.064 17.9039V16.8959C319.064 15.7679 318.944 14.8799 318.704 14.2319C318.464 13.5839 318.044 13.1159 317.444 12.8279C316.868 12.5159 316.04 12.3599 314.96 12.3599C313.736 12.3599 312.632 12.5399 311.648 12.8999C310.688 13.2359 309.728 13.6559 308.768 14.1599L307.868 12.2879C308.18 12.0239 308.756 11.6759 309.596 11.2439C310.436 10.8119 311.408 10.4279 312.512 10.0919C313.616 9.75589 314.72 9.58789 315.824 9.58789C317.528 9.58789 318.872 9.82789 319.856 10.3079C320.864 10.7639 321.584 11.5079 322.016 12.5399C322.448 13.5719 322.664 14.9519 322.664 16.6799V28.2359H324.788V29.8199C324.308 29.9399 323.696 30.0599 322.952 30.1799C322.232 30.2999 321.596 30.3599 321.044 30.3599C320.372 30.3599 319.916 30.2519 319.676 30.0359C319.436 29.8439 319.316 29.3999 319.316 28.7039V27.5159C318.596 28.2359 317.708 28.8959 316.652 29.4959C315.62 30.0959 314.444 30.3959 313.124 30.3959C311.396 30.3959 309.956 29.9039 308.804 28.9199C307.676 27.9119 307.112 26.4719 307.112 24.5999ZM314.672 27.9479C315.296 27.9479 316.016 27.7559 316.832 27.3719C317.648 26.9879 318.392 26.5319 319.064 26.0039V19.8119C316.448 19.8119 314.468 20.2199 313.124 21.0359C311.804 21.8279 311.144 22.8719 311.144 24.1679C311.144 25.4639 311.456 26.4239 312.08 27.0479C312.728 27.6479 313.592 27.9479 314.672 27.9479Z" fill="#FAF7DC"/>
<path d="M297.752 3.14363L294.836 2.74763V1.19963L300.632 0.515625H300.704L301.496 1.05563V27.9476L304.556 28.2356V29.9996H294.836V28.2356L297.752 27.9116V3.14363Z" fill="#FAF7DC"/>
<path d="M278.077 30.3599C276.709 30.3599 275.689 30.0479 275.017 29.4239C274.345 28.7999 274.009 27.7319 274.009 26.2199V12.3959H271.417V10.7759C271.537 10.7519 271.873 10.6679 272.425 10.5239C272.977 10.3799 273.349 10.2479 273.541 10.1279C273.925 9.91194 274.225 9.47994 274.441 8.83194C274.633 8.37594 274.861 7.64394 275.125 6.63594C275.389 5.62794 275.545 5.02794 275.593 4.83594H277.717L277.789 10.0199H283.801V12.3959H277.789V23.4479C277.789 24.8159 277.825 25.7759 277.897 26.3279C277.993 26.8799 278.173 27.2399 278.437 27.4079C278.725 27.5759 279.205 27.6599 279.877 27.6599C280.525 27.6599 281.233 27.5759 282.001 27.4079C282.793 27.2399 283.405 27.0599 283.837 26.8679L284.377 28.4879C283.801 28.9199 282.865 29.3399 281.569 29.7479C280.297 30.1559 279.133 30.3599 278.077 30.3599Z" fill="#FAF7DC"/>
<path d="M257.093 27.1199C257.333 27.4799 257.837 27.8039 258.605 28.0919C259.397 28.3799 260.225 28.5239 261.089 28.5239C262.457 28.5239 263.465 28.2599 264.113 27.7319C264.761 27.2039 265.085 26.4719 265.085 25.5359C265.085 24.8879 264.881 24.3239 264.473 23.8439C264.065 23.3639 263.489 22.9439 262.745 22.5839C262.025 22.1999 260.981 21.7439 259.613 21.2159C257.765 20.5199 256.409 19.6919 255.545 18.7319C254.705 17.7479 254.285 16.4639 254.285 14.8799C254.285 13.8239 254.597 12.8999 255.221 12.1079C255.869 11.3159 256.745 10.7039 257.849 10.2719C258.977 9.81589 260.225 9.58789 261.593 9.58789C262.697 9.58789 263.657 9.67189 264.473 9.83989C265.313 10.0079 265.985 10.1759 266.489 10.3439C266.993 10.5119 267.329 10.6199 267.497 10.6679V15.1319H265.301L264.581 12.4679C264.437 12.1799 264.053 11.9399 263.429 11.7479C262.805 11.5319 262.109 11.4239 261.341 11.4239C260.261 11.4239 259.385 11.6639 258.713 12.1439C258.065 12.6239 257.741 13.2719 257.741 14.0879C257.741 14.8079 257.909 15.4079 258.245 15.8879C258.605 16.3439 259.049 16.7159 259.577 17.0039C260.105 17.2919 260.825 17.6279 261.737 18.0119L262.457 18.2999C263.801 18.8279 264.893 19.3319 265.733 19.8119C266.573 20.2919 267.269 20.9279 267.821 21.7199C268.397 22.4879 268.685 23.4359 268.685 24.5639C268.685 26.3399 267.989 27.7559 266.597 28.8119C265.229 29.8679 263.345 30.3959 260.945 30.3959C259.769 30.3959 258.533 30.2399 257.237 29.9279C255.965 29.5919 254.921 29.2559 254.105 28.9199V24.3119H256.445L257.093 27.1199Z" fill="#FAF7DC"/>
<path d="M233.565 24.5999C233.565 22.3439 234.693 20.6879 236.949 19.6319C239.205 18.5519 242.061 17.9759 245.517 17.9039V16.8959C245.517 15.7679 245.397 14.8799 245.157 14.2319C244.917 13.5839 244.497 13.1159 243.897 12.8279C243.321 12.5159 242.493 12.3599 241.413 12.3599C240.189 12.3599 239.085 12.5399 238.101 12.8999C237.141 13.2359 236.181 13.6559 235.221 14.1599L234.321 12.2879C234.633 12.0239 235.209 11.6759 236.049 11.2439C236.889 10.8119 237.861 10.4279 238.965 10.0919C240.069 9.75589 241.173 9.58789 242.277 9.58789C243.981 9.58789 245.325 9.82789 246.309 10.3079C247.317 10.7639 248.037 11.5079 248.469 12.5399C248.901 13.5719 249.117 14.9519 249.117 16.6799V28.2359H251.241V29.8199C250.761 29.9399 250.149 30.0599 249.405 30.1799C248.685 30.2999 248.049 30.3599 247.497 30.3599C246.825 30.3599 246.369 30.2519 246.129 30.0359C245.889 29.8439 245.769 29.3999 245.769 28.7039V27.5159C245.049 28.2359 244.161 28.8959 243.105 29.4959C242.073 30.0959 240.897 30.3959 239.577 30.3959C237.849 30.3959 236.409 29.9039 235.257 28.9199C234.129 27.9119 233.565 26.4719 233.565 24.5999ZM241.125 27.9479C241.749 27.9479 242.469 27.7559 243.285 27.3719C244.101 26.9879 244.845 26.5319 245.517 26.0039V19.8119C242.901 19.8119 240.921 20.2199 239.577 21.0359C238.257 21.8279 237.597 22.8719 237.597 24.1679C237.597 25.4639 237.909 26.4239 238.533 27.0479C239.181 27.6479 240.045 27.9479 241.125 27.9479Z" fill="#FAF7DC"/>
<path d="M211.448 10.0195H219.8V11.7115L217.244 12.1795L220.88 22.5475L222.392 27.1195L223.688 22.6915L227.324 12.1795L224.876 11.7115V10.0195H232.184V11.7115L230.312 12.1795L223.364 30.2875H220.304L213.068 12.1795L211.448 11.7115V10.0195Z" fill="#FAF7DC"/>
<path d="M193.835 30.3965C190.931 30.3965 188.711 29.4485 187.175 27.5525C185.663 25.6565 184.907 23.1245 184.907 19.9565C184.907 17.8685 185.303 16.0325 186.095 14.4485C186.887 12.8645 187.991 11.6405 189.407 10.7765C190.847 9.91247 192.479 9.48047 194.303 9.48047C196.535 9.48047 198.263 10.1045 199.487 11.3525C200.735 12.5765 201.395 14.3405 201.467 16.6445C201.467 18.1085 201.383 19.2245 201.215 19.9925H188.831C188.879 22.3685 189.431 24.2885 190.487 25.7525C191.543 27.1925 193.043 27.9125 194.987 27.9125C195.947 27.9125 196.943 27.7445 197.975 27.4085C199.031 27.0485 199.847 26.6285 200.423 26.1485L201.107 27.7325C200.411 28.4525 199.379 29.0765 198.011 29.6045C196.643 30.1325 195.251 30.3965 193.835 30.3965ZM197.507 18.0845C197.579 17.5805 197.615 17.0645 197.615 16.5365C197.591 14.9765 197.255 13.7525 196.607 12.8645C195.983 11.9525 194.987 11.4965 193.619 11.4965C192.227 11.4965 191.111 12.0005 190.271 13.0085C189.455 14.0165 188.987 15.7085 188.867 18.0845H197.507Z" fill="#FAF7DC"/>
<path d="M163.193 3.14363L160.169 2.74763V1.19963L166.037 0.515625H166.109L166.901 1.05563V9.40763L166.757 12.4676C167.525 11.7716 168.581 11.1116 169.925 10.4876C171.269 9.86363 172.625 9.55163 173.993 9.55163C175.505 9.55163 176.681 9.83963 177.521 10.4156C178.361 10.9916 178.949 11.8796 179.285 13.0796C179.621 14.2556 179.789 15.8516 179.789 17.8676V27.9116L182.309 28.2356V29.9996H173.705V28.2356L176.045 27.9116V17.8316C176.045 16.4156 175.949 15.3116 175.757 14.5196C175.565 13.7036 175.205 13.1036 174.677 12.7196C174.149 12.3116 173.357 12.1076 172.301 12.1076C171.437 12.1076 170.513 12.3236 169.529 12.7556C168.545 13.1876 167.681 13.6916 166.937 14.2676V27.9116L169.421 28.2356V29.9996H161.033V28.2356L163.193 27.9476V3.14363Z" fill="#FAF7DC"/>
<path d="M152.745 30.3599C151.377 30.3599 150.357 30.0479 149.685 29.4239C149.013 28.7999 148.677 27.7319 148.677 26.2199V12.3959H146.085V10.7759C146.205 10.7519 146.541 10.6679 147.093 10.5239C147.645 10.3799 148.017 10.2479 148.209 10.1279C148.593 9.91194 148.893 9.47994 149.109 8.83194C149.301 8.37594 149.529 7.64394 149.793 6.63594C150.057 5.62794 150.213 5.02794 150.261 4.83594H152.385L152.457 10.0199H158.469V12.3959H152.457V23.4479C152.457 24.8159 152.493 25.7759 152.565 26.3279C152.661 26.8799 152.841 27.2399 153.105 27.4079C153.393 27.5759 153.873 27.6599 154.545 27.6599C155.193 27.6599 155.901 27.5759 156.669 27.4079C157.461 27.2399 158.073 27.0599 158.505 26.8679L159.045 28.4879C158.469 28.9199 157.533 29.3399 156.237 29.7479C154.965 30.1559 153.801 30.3599 152.745 30.3599Z" fill="#FAF7DC"/>
<path d="M127.32 30.3965C124.416 30.3965 122.196 29.4485 120.66 27.5525C119.148 25.6565 118.392 23.1245 118.392 19.9565C118.392 17.8685 118.788 16.0325 119.58 14.4485C120.372 12.8645 121.476 11.6405 122.892 10.7765C124.332 9.91247 125.964 9.48047 127.788 9.48047C130.02 9.48047 131.748 10.1045 132.972 11.3525C134.22 12.5765 134.88 14.3405 134.952 16.6445C134.952 18.1085 134.868 19.2245 134.7 19.9925H122.316C122.364 22.3685 122.916 24.2885 123.972 25.7525C125.028 27.1925 126.528 27.9125 128.472 27.9125C129.432 27.9125 130.428 27.7445 131.46 27.4085C132.516 27.0485 133.332 26.6285 133.908 26.1485L134.592 27.7325C133.896 28.4525 132.864 29.0765 131.496 29.6045C130.128 30.1325 128.736 30.3965 127.32 30.3965ZM130.992 18.0845C131.064 17.5805 131.1 17.0645 131.1 16.5365C131.076 14.9765 130.74 13.7525 130.092 12.8645C129.468 11.9525 128.472 11.4965 127.104 11.4965C125.712 11.4965 124.596 12.0005 123.756 13.0085C122.94 14.0165 122.472 15.7085 122.352 18.0845H130.992Z" fill="#FAF7DC"/>
<path d="M102.047 28.2365L104.747 28.0205V12.7925L102.155 12.1445V10.2005L107.123 9.55247H107.195L107.987 10.2005V10.8485L107.879 13.6565H107.987C108.227 13.2485 108.659 12.7205 109.283 12.0725C109.907 11.4245 110.711 10.8365 111.695 10.3085C112.679 9.75647 113.747 9.48047 114.899 9.48047C115.379 9.48047 115.775 9.54047 116.087 9.66047V13.6925C115.919 13.5725 115.643 13.4645 115.259 13.3685C114.899 13.2485 114.491 13.1885 114.035 13.1885C112.043 13.1885 110.195 13.8005 108.491 15.0245V27.9845L113.063 28.2725V30.0005H102.047V28.2365Z" fill="#FAF7DC"/>
<path d="M80.0732 19.9565C80.0732 17.7965 80.5172 15.9245 81.4052 14.3405C82.2932 12.7565 83.4572 11.5565 84.8972 10.7405C86.3612 9.90047 87.9212 9.48047 89.5772 9.48047C92.6012 9.48047 94.8692 10.4405 96.3812 12.3605C97.9172 14.2805 98.6852 16.8005 98.6852 19.9205C98.6852 22.1045 98.2412 23.9885 97.3532 25.5725C96.4652 27.1565 95.2892 28.3565 93.8252 29.1725C92.3852 29.9885 90.8372 30.3965 89.1812 30.3965C86.1572 30.3965 83.8772 29.4365 82.3412 27.5165C80.8292 25.5965 80.0732 23.0765 80.0732 19.9565ZM89.3972 28.3445C91.0532 28.3445 92.3252 27.6605 93.2132 26.2925C94.1012 24.9245 94.5452 22.8965 94.5452 20.2085C94.5452 17.5445 94.1372 15.4325 93.3212 13.8725C92.5052 12.3125 91.1972 11.5325 89.3972 11.5325C87.7412 11.5325 86.4572 12.2165 85.5452 13.5845C84.6572 14.9525 84.2132 16.9805 84.2132 19.6685C84.2132 22.3325 84.6332 24.4445 85.4732 26.0045C86.3132 27.5645 87.6212 28.3445 89.3972 28.3445Z" fill="#FAF7DC"/>
<path d="M70.7129 3.14363L67.7969 2.74763V1.19963L73.5929 0.515625H73.6649L74.4569 1.05563V27.9476L77.5169 28.2356V29.9996H67.7969V28.2356L70.7129 27.9116V3.14363Z" fill="#FAF7DC"/>
<path d="M64.9553 19.3085C64.9553 21.3485 64.5353 23.2205 63.6953 24.9245C62.8553 26.6045 61.6553 27.9365 60.0953 28.9205C58.5353 29.9045 56.7113 30.3965 54.6233 30.3965C54.0473 30.3965 53.4233 30.3485 52.7513 30.2525C52.0793 30.1565 51.5393 30.0365 51.1313 29.8925L51.2393 32.9165V36.5525L54.9833 36.9485V38.7125H44.9393V36.9485L47.5313 36.5525V12.7925L44.9033 12.1445V10.2005L50.0153 9.55247H50.0873L50.8433 10.2005V12.3245C51.5633 11.5325 52.4513 10.8605 53.5073 10.3085C54.5873 9.75647 55.7873 9.48047 57.1073 9.48047C58.5233 9.48047 59.8193 9.82847 60.9953 10.5245C62.1953 11.2205 63.1553 12.3005 63.8753 13.7645C64.5953 15.2285 64.9553 17.0765 64.9553 19.3085ZM55.6313 12.0005C54.7193 12.0005 53.8673 12.1925 53.0753 12.5765C52.2833 12.9605 51.6713 13.3805 51.2393 13.8365V27.4085C51.4073 27.6965 51.8273 27.9605 52.4993 28.2005C53.1953 28.4165 53.9513 28.5245 54.7673 28.5245C56.6153 28.5245 58.1033 27.7925 59.2313 26.3285C60.3833 24.8645 60.9593 22.6565 60.9593 19.7045C60.9593 17.1125 60.4553 15.1805 59.4473 13.9085C58.4633 12.6365 57.1913 12.0005 55.6313 12.0005Z" fill="#FAF7DC"/>
<path d="M31.233 20.0275L25.149 12.1435L23.133 11.7115V10.0195H32.277V11.7115L29.757 12.1435L33.033 16.7875L34.041 18.3355L35.013 16.7875L38.433 12.1435L35.805 11.7115V10.0195H43.401V11.7115L41.241 12.1435L35.265 19.5955L41.637 27.9475L43.725 28.2715V29.9995H34.473V28.2715L36.849 27.9115L33.573 23.0515L32.493 21.4315L31.521 23.0155L28.065 27.9115L31.053 28.2715V29.9995H22.665V28.2715L25.077 27.9115L31.233 20.0275Z" fill="#FAF7DC"/>
<path d="M3.64376 5.48395L0.691762 5.05195V3.25195H19.0158L19.5198 8.83195H17.4678L16.4238 5.33995L7.49576 5.12395V15.276L13.5078 15.168L14.0118 12.18H15.9918V20.46H14.0118L13.5078 17.364L7.49576 17.256V27.984L17.6478 27.624L19.5558 23.088L21.6798 23.736L20.6358 30H0.655762V28.236L3.64376 27.876V5.48395Z" fill="#FAF7DC"/>
</svg>
