<svg width="153" height="30" viewBox="0 0 153 30" fill="none" xmlns="http://www.w3.org/2000/svg">
<path d="M138.54 27.2365L141.24 27.0205V11.7925L138.648 11.1445V9.20047L143.616 8.55247H143.688L144.48 9.20047V9.84847L144.372 12.6565H144.48C144.72 12.2485 145.152 11.7205 145.776 11.0725C146.4 10.4245 147.204 9.83647 148.188 9.30847C149.172 8.75647 150.24 8.48047 151.392 8.48047C151.872 8.48047 152.268 8.54047 152.58 8.66047V12.6925C152.412 12.5725 152.136 12.4645 151.752 12.3685C151.392 12.2485 150.984 12.1885 150.528 12.1885C148.536 12.1885 146.688 12.8005 144.984 14.0245V26.9845L149.556 27.2725V29.0005H138.54V27.2365Z" fill="#FAF7DC"/>
<path d="M127.741 29.3965C124.837 29.3965 122.617 28.4485 121.081 26.5525C119.569 24.6565 118.813 22.1245 118.813 18.9565C118.813 16.8685 119.209 15.0325 120.001 13.4485C120.793 11.8645 121.897 10.6405 123.313 9.77647C124.753 8.91247 126.385 8.48047 128.209 8.48047C130.441 8.48047 132.169 9.10447 133.393 10.3525C134.641 11.5765 135.301 13.3405 135.373 15.6445C135.373 17.1085 135.289 18.2245 135.121 18.9925H122.737C122.785 21.3685 123.337 23.2885 124.393 24.7525C125.449 26.1925 126.949 26.9125 128.893 26.9125C129.853 26.9125 130.849 26.7445 131.881 26.4085C132.937 26.0485 133.753 25.6285 134.329 25.1485L135.013 26.7325C134.317 27.4525 133.285 28.0765 131.917 28.6045C130.549 29.1325 129.157 29.3965 127.741 29.3965ZM131.413 17.0845C131.485 16.5805 131.521 16.0645 131.521 15.5365C131.497 13.9765 131.161 12.7525 130.513 11.8645C129.889 10.9525 128.893 10.4965 127.525 10.4965C126.133 10.4965 125.017 11.0005 124.177 12.0085C123.361 13.0165 122.893 14.7085 122.773 17.0845H131.413Z" fill="#FAF7DC"/>
<path d="M96.7686 9.01953H105.121V10.7115L102.565 11.1795L106.201 21.5475L107.713 26.1195L109.009 21.6915L112.645 11.1795L110.197 10.7115V9.01953H117.505V10.7115L115.633 11.1795L108.685 29.2875H105.625L98.3886 11.1795L96.7686 10.7115V9.01953Z" fill="#FAF7DC"/>
<path d="M76.5225 18.9565C76.5225 16.7965 76.9665 14.9245 77.8545 13.3405C78.7425 11.7565 79.9065 10.5565 81.3465 9.74047C82.8105 8.90047 84.3705 8.48047 86.0265 8.48047C89.0505 8.48047 91.3185 9.44047 92.8305 11.3605C94.3665 13.2805 95.1345 15.8005 95.1345 18.9205C95.1345 21.1045 94.6905 22.9885 93.8025 24.5725C92.9145 26.1565 91.7385 27.3565 90.2745 28.1725C88.8345 28.9885 87.2865 29.3965 85.6305 29.3965C82.6065 29.3965 80.3265 28.4365 78.7905 26.5165C77.2785 24.5965 76.5225 22.0765 76.5225 18.9565ZM85.8465 27.3445C87.5025 27.3445 88.7745 26.6605 89.6625 25.2925C90.5505 23.9245 90.9945 21.8965 90.9945 19.2085C90.9945 16.5445 90.5865 14.4325 89.7705 12.8725C88.9545 11.3125 87.6465 10.5325 85.8465 10.5325C84.1905 10.5325 82.9065 11.2165 81.9945 12.5845C81.1065 13.9525 80.6625 15.9805 80.6625 18.6685C80.6625 21.3325 81.0825 23.4445 81.9225 25.0045C82.7625 26.5645 84.0705 27.3445 85.8465 27.3445Z" fill="#FAF7DC"/>
<path d="M57.6333 19.1365C57.6333 17.1445 58.0173 15.3445 58.7853 13.7365C59.5773 12.1285 60.7293 10.8565 62.2413 9.92047C63.7773 8.96047 65.6133 8.48047 67.7493 8.48047C68.7813 8.48047 69.6693 8.57647 70.4133 8.76847C71.1573 8.96047 72.0453 9.22447 73.0773 9.56047L72.9333 15.1045H70.5933L69.8013 11.4325C69.6573 10.7605 68.7453 10.4245 67.0653 10.4245C65.3853 10.4245 64.0533 11.1085 63.0693 12.4765C62.1093 13.8205 61.6293 15.7405 61.6293 18.2365C61.6293 21.0685 62.1693 23.2285 63.2493 24.7165C64.3533 26.1805 65.7813 26.9125 67.5333 26.9125C68.5413 26.9125 69.4893 26.7565 70.3773 26.4445C71.2893 26.1325 72.0693 25.7605 72.7173 25.3285L73.4013 26.7685C72.7533 27.4405 71.7933 28.0525 70.5213 28.6045C69.2733 29.1325 68.0013 29.3965 66.7053 29.3965C64.7373 29.3965 63.0693 28.9525 61.7013 28.0645C60.3573 27.1765 59.3373 25.9645 58.6413 24.4285C57.9693 22.8685 57.6333 21.1045 57.6333 19.1365Z" fill="#FAF7DC"/>
<path d="M43.2375 26.1199C43.4775 26.4799 43.9815 26.8039 44.7495 27.0919C45.5415 27.3799 46.3695 27.5239 47.2335 27.5239C48.6015 27.5239 49.6095 27.2599 50.2575 26.7319C50.9055 26.2039 51.2295 25.4719 51.2295 24.5359C51.2295 23.8879 51.0255 23.3239 50.6175 22.8439C50.2095 22.3639 49.6335 21.9439 48.8895 21.5839C48.1695 21.1999 47.1255 20.7439 45.7575 20.2159C43.9095 19.5199 42.5535 18.6919 41.6895 17.7319C40.8495 16.7479 40.4295 15.4639 40.4295 13.8799C40.4295 12.8239 40.7415 11.8999 41.3655 11.1079C42.0135 10.3159 42.8895 9.70389 43.9935 9.27189C45.1215 8.81589 46.3695 8.58789 47.7375 8.58789C48.8415 8.58789 49.8015 8.67189 50.6175 8.83989C51.4575 9.00789 52.1295 9.17589 52.6335 9.34389C53.1375 9.51189 53.4735 9.61989 53.6415 9.66789V14.1319H51.4455L50.7255 11.4679C50.5815 11.1799 50.1975 10.9399 49.5735 10.7479C48.9495 10.5319 48.2535 10.4239 47.4855 10.4239C46.4055 10.4239 45.5295 10.6639 44.8575 11.1439C44.2095 11.6239 43.8855 12.2719 43.8855 13.0879C43.8855 13.8079 44.0535 14.4079 44.3895 14.8879C44.7495 15.3439 45.1935 15.7159 45.7215 16.0039C46.2495 16.2919 46.9695 16.6279 47.8815 17.0119L48.6015 17.2999C49.9455 17.8279 51.0375 18.3319 51.8775 18.8119C52.7175 19.2919 53.4135 19.9279 53.9655 20.7199C54.5415 21.4879 54.8295 22.4359 54.8295 23.5639C54.8295 25.3399 54.1335 26.7559 52.7415 27.8119C51.3735 28.8679 49.4895 29.3959 47.0895 29.3959C45.9135 29.3959 44.6775 29.2399 43.3815 28.9279C42.1095 28.5919 41.0655 28.2559 40.2495 27.9199V23.3119H42.5895L43.2375 26.1199Z" fill="#FAF7DC"/>
<path d="M32.1495 5.42015C31.3815 5.42015 30.8055 5.20415 30.4215 4.77215C30.0375 4.34015 29.8455 3.78815 29.8455 3.11615C29.8455 2.34815 30.0735 1.71215 30.5295 1.20815C31.0095 0.704148 31.6575 0.452148 32.4735 0.452148C33.2895 0.452148 33.8895 0.668148 34.2735 1.10015C34.6575 1.53215 34.8495 2.08415 34.8495 2.75615C34.8495 3.57215 34.6095 4.22015 34.1295 4.70015C33.6735 5.18015 33.0255 5.42015 32.1855 5.42015H32.1495ZM30.7095 11.7921L27.9735 11.1441V9.23615L33.5535 8.55215H33.6255L34.4535 9.20015V26.9481L37.3335 27.2361V29.0001H27.7935V27.2361L30.7095 26.9121V11.7921Z" fill="#FAF7DC"/>
<path d="M3.64376 4.48387L0.835762 4.05187V2.25187H5.55176C6.29576 2.25187 7.36376 2.20387 8.75576 2.10787C10.1478 2.01187 11.1918 1.96387 11.8878 1.96387C16.3518 1.96387 19.6638 3.09187 21.8238 5.34787C24.0078 7.57987 25.0998 10.7239 25.0998 14.7799C25.0998 17.6119 24.5358 20.1319 23.4078 22.3399C22.3038 24.5239 20.7438 26.2279 18.7278 27.4519C16.7118 28.6759 14.3958 29.2879 11.7798 29.2879C11.2038 29.2879 10.2198 29.2399 8.82776 29.1439C7.38776 29.0479 6.30776 28.9999 5.58776 28.9999H0.655762V27.2359L3.64376 26.8759V4.48387ZM7.45976 26.9839C8.29976 27.1759 9.37976 27.2719 10.6998 27.2719H11.7798C13.5798 27.2479 15.1638 26.7919 16.5318 25.9039C17.9238 25.0159 19.0038 23.6959 19.7718 21.9439C20.5398 20.1679 20.9238 18.0199 20.9238 15.4999C20.9238 11.7079 20.0958 8.82787 18.4398 6.85987C16.8078 4.89187 14.3358 3.90787 11.0238 3.90787C10.3278 3.90787 9.49976 3.95587 8.53976 4.05187C8.13176 4.12387 7.77176 4.15987 7.45976 4.15987V26.9839Z" fill="#FAF7DC"/>
</svg>
